<svg width="64" height="64" viewBox="0 0 64 64" fill="none" xmlns="http://www.w3.org/2000/svg">
<rect width="64" height="64" fill="#E5E5E5"/>
<rect width="1440" height="3144" transform="translate(-291 -1975)" fill="white"/>
<rect x="-291" y="-197" width="718" height="913" fill="#A792FE" fill-opacity="0.07"/>
<circle cx="32" cy="32" r="32" fill="#56CCF2"/>
<path d="M49.2264 21.5064C48.676 21.0728 47.2 20.7248 46.0952 20.4656L44.6 20.2656V16.6512L45.3656 16.6392C46.0832 17.0032 47.1168 17.6 47.1704 18.4H50.0536C50 16.8 48.7848 15.7904 47.7032 14.9888C46.9856 14.4568 46.2 14.1728 44.6 14.0008V12H43V13.9392C41.4 14.0928 40.8832 14.4912 40.1608 15.1416C39.216 15.992 38.7952 17.0592 38.7952 18.344C38.7952 19.752 39.1976 20.7864 40.1648 21.4488C40.7056 21.824 41.4 22.1728 43 22.496V26.412C42.2 26.2704 42.1984 26.3064 41.916 25.9712C41.644 25.6464 41.5696 24.8 41.4768 24.8H38.616C38.616 26.4 39.0488 27.1664 40.132 28.02C40.9128 28.6352 41.4 28.744 43 28.9056V30.4H44.6V28.9312C46.2 28.7768 47.5592 28.3696 48.3408 27.7024C49.3552 26.836 50.1848 25.7472 50.1848 24.4368C50.184 23.1584 50.0816 22.1824 49.2264 21.5064ZM42.2144 19.2776C41.7488 19.024 41.5696 18.64 41.5696 18.1272C41.5696 17.5688 41.724 17.132 42.196 16.82C42.4448 16.656 42.2 16.5368 43 16.4576V19.6096C42.2 19.488 42.3904 19.3776 42.2144 19.2776ZM45.6888 26.3336C45.5544 26.38 44.6 26.4168 44.6 26.4496V23.116C46.2 23.2536 46.0768 23.4016 46.3424 23.5624C46.7592 23.8216 46.9688 24.1912 46.9688 24.664C46.9688 25.4768 46.5408 26.0344 45.6888 26.3336ZM41.816 36H41.3736L36.4584 27.1C36.2464 26.7152 35.712 26.4 35.272 26.4H20.3592C19.9192 26.4 19.3848 26.7152 19.1728 27.1L14.2576 36H13.816C12.9352 36 11.8 36.72 11.8 37.6V45.6C11.8 46.48 12.9352 47.2 13.816 47.2H15V49.6C15 50.92 16.496 52 17.816 52H18.616C19.936 52 20.6 50.92 20.6 49.6V47.2H34.2V49.6C34.2 50.92 35.6952 52 37.016 52H37.816C39.136 52 39.8 50.92 39.8 49.6V47.2H41.816C42.696 47.2 43 46.48 43 45.6V37.6C43 36.72 42.6952 36 41.816 36ZM16.616 42.4C16.0856 42.4 15.5768 42.1893 15.2018 41.8142C14.8267 41.4391 14.616 40.9304 14.616 40.4C14.616 39.8696 14.8267 39.3609 15.2018 38.9858C15.5768 38.6107 16.0856 38.4 16.616 38.4C17.1464 38.4 17.6551 38.6107 18.0302 38.9858C18.4053 39.3609 18.616 39.8696 18.616 40.4C18.616 40.9304 18.4053 41.4391 18.0302 41.8142C17.6551 42.1893 17.1464 42.4 16.616 42.4ZM18.216 36L21.4584 29.516C21.6544 29.1216 22.176 28.8 22.616 28.8H33.016C33.456 28.8 33.9768 29.1216 34.1736 29.516L37.416 36H18.216ZM39.016 42.4C38.4856 42.4 37.9768 42.1893 37.6018 41.8142C37.2267 41.4391 37.016 40.9304 37.016 40.4C37.016 39.8696 37.2267 39.3609 37.6018 38.9858C37.9768 38.6107 38.4856 38.4 39.016 38.4C39.5464 38.4 40.0551 38.6107 40.4302 38.9858C40.8053 39.3609 41.016 39.8696 41.016 40.4C41.016 40.9304 40.8053 41.4391 40.4302 41.8142C40.0551 42.1893 39.5464 42.4 39.016 42.4Z" fill="white"/>
</svg>
