<svg width="59" height="59" viewBox="0 0 59 59" fill="none" xmlns="http://www.w3.org/2000/svg">
<rect width="59" height="59" fill="#E5E5E5"/>
<rect width="1440" height="3144" transform="translate(-667 -1162)" fill="white"/>
<rect x="-667" y="-496" width="1440" height="1110" fill="#5C1A8D"/>
<circle cx="29.5" cy="29.5" r="29.5" fill="#F2C94C"/>
<path d="M42.8631 27.902V26.516L45.1731 25.2H46.1531V35H44.7531V26.95L42.8631 27.902Z" fill="black"/>
<path d="M9.89533 31.166L10.7073 30.564C11.398 31.6187 12.2567 32.146 13.2833 32.146C13.8433 32.146 14.2913 32.006 14.6273 31.726C14.9727 31.446 15.1453 31.0727 15.1453 30.606C15.1453 30.214 15.0333 29.92 14.8093 29.724C14.5947 29.5187 14.1933 29.2713 13.6053 28.982L12.5693 28.492C11.8693 28.1653 11.3467 27.8153 11.0013 27.442C10.656 27.0687 10.4833 26.5927 10.4833 26.014C10.4833 25.3047 10.754 24.726 11.2953 24.278C11.8367 23.83 12.4947 23.606 13.2693 23.606C13.876 23.606 14.4313 23.7507 14.9353 24.04C15.4487 24.32 15.8593 24.698 16.1673 25.174L15.3693 25.776C14.8467 25.0013 14.142 24.614 13.2553 24.614C12.7887 24.614 12.3967 24.7353 12.0793 24.978C11.7713 25.2207 11.6173 25.5473 11.6173 25.958C11.6173 26.2287 11.678 26.4527 11.7993 26.63C11.9113 26.798 12.056 26.938 12.2333 27.05C12.4107 27.162 12.7 27.316 13.1013 27.512L14.1233 28.002C14.8793 28.3753 15.4253 28.7533 15.7613 29.136C16.1067 29.5187 16.2793 29.9993 16.2793 30.578C16.2793 31.334 15.9993 31.9547 15.4393 32.44C14.8793 32.916 14.1653 33.154 13.2973 33.154C12.588 33.154 11.9347 32.9813 11.3373 32.636C10.74 32.2813 10.2593 31.7913 9.89533 31.166ZM21.8336 32.09V33C21.3763 33.1027 20.9983 33.154 20.6996 33.154C19.9716 33.154 19.4069 32.9673 19.0056 32.594C18.6043 32.2207 18.4036 31.67 18.4036 30.942V27.148H17.2556V26.182H18.4036V24.32H19.4816V26.182H21.6096V27.148H19.4816V30.872C19.4816 31.3387 19.5983 31.6747 19.8316 31.88C20.0743 32.076 20.4383 32.174 20.9236 32.174C21.1849 32.174 21.4883 32.146 21.8336 32.09ZM29.1849 29.92H23.7949C23.8603 30.592 24.1263 31.1333 24.5929 31.544C25.0596 31.9547 25.6289 32.16 26.3009 32.16C27.0756 32.16 27.7709 31.852 28.3869 31.236L29.0169 31.964C28.2516 32.7573 27.3416 33.154 26.2869 33.154C25.2696 33.154 24.4109 32.8133 23.7109 32.132C23.0203 31.4413 22.6749 30.5967 22.6749 29.598C22.6749 28.6087 23.0109 27.7687 23.6829 27.078C24.3643 26.378 25.1903 26.028 26.1609 26.028C27.0476 26.028 27.7849 26.3173 28.3729 26.896C28.9703 27.4747 29.2689 28.212 29.2689 29.108C29.2689 29.3693 29.2409 29.64 29.1849 29.92ZM23.8369 28.968H28.1629C28.1536 28.3707 27.9576 27.8947 27.5749 27.54C27.1923 27.1853 26.7116 27.008 26.1329 27.008C25.5636 27.008 25.0689 27.19 24.6489 27.554C24.2289 27.9087 23.9583 28.38 23.8369 28.968ZM37.015 27.05C37.659 27.7313 37.981 28.576 37.981 29.584C37.981 30.592 37.6543 31.4413 37.001 32.132C36.357 32.8133 35.559 33.154 34.607 33.154C33.5336 33.154 32.6983 32.776 32.101 32.02V35.52H31.023V26.182H32.031V27.274C32.2923 26.882 32.6516 26.5787 33.109 26.364C33.5663 26.14 34.0656 26.028 34.607 26.028C35.5776 26.028 36.3803 26.3687 37.015 27.05ZM36.175 31.432C36.6416 30.9467 36.875 30.3353 36.875 29.598C36.875 28.8607 36.6416 28.2493 36.175 27.764C35.7176 27.2693 35.1436 27.022 34.453 27.022C33.7996 27.022 33.2396 27.246 32.773 27.694C32.3156 28.142 32.087 28.772 32.087 29.584C32.087 30.4147 32.311 31.054 32.759 31.502C33.2163 31.9407 33.781 32.16 34.453 32.16C35.1436 32.16 35.7176 31.9173 36.175 31.432Z" fill="black"/>
</svg>
