<svg width="64" height="64" viewBox="0 0 64 64" fill="none" xmlns="http://www.w3.org/2000/svg">
<rect width="64" height="64" fill="#E5E5E5"/>
<rect width="1440" height="3144" transform="translate(-291 -2228)" fill="white"/>
<rect x="-291" y="-450" width="718" height="913" fill="#A792FE" fill-opacity="0.07"/>
<circle cx="32" cy="32" r="32" fill="#F2C94C"/>
<path d="M37.3333 20C40.8696 20 44.2609 21.4048 46.7614 23.9052C49.2619 26.4057 50.6667 29.7971 50.6667 33.3333C50.6667 36.8696 49.2619 40.2609 46.7614 42.7614C44.2609 45.2619 40.8696 46.6667 37.3333 46.6667C33.7971 46.6667 30.4057 45.2619 27.9052 42.7614C25.4048 40.2609 24 36.8696 24 33.3333C24 29.7971 25.4048 26.4057 27.9052 23.9052C30.4057 21.4048 33.7971 20 37.3333 20V20ZM37.3333 23.3333C34.6812 23.3333 32.1376 24.3869 30.2623 26.2623C28.3869 28.1376 27.3333 30.6812 27.3333 33.3333C27.3333 35.9855 28.3869 38.529 30.2623 40.4044C32.1376 42.2798 34.6812 43.3333 37.3333 43.3333C39.9855 43.3333 42.529 42.2798 44.4044 40.4044C46.2798 38.529 47.3333 35.9855 47.3333 33.3333C47.3333 30.6812 46.2798 28.1376 44.4044 26.2623C42.529 24.3869 39.9855 23.3333 37.3333 23.3333ZM35.6667 26.6667H38.1667V32.9667L42.05 36.85L40.2833 38.6167L35.6667 34V26.6667ZM15.6667 43.3333C15.2246 43.3333 14.8007 43.1577 14.4882 42.8452C14.1756 42.5326 14 42.1087 14 41.6667C14 41.2246 14.1756 40.8007 14.4882 40.4882C14.8007 40.1756 15.2246 40 15.6667 40H22.05C22.5667 41.1833 23.2333 42.3 24 43.3333H15.6667ZM17.3333 35C16.8913 35 16.4674 34.8244 16.1548 34.5118C15.8423 34.1993 15.6667 33.7754 15.6667 33.3333C15.6667 32.8913 15.8423 32.4674 16.1548 32.1548C16.4674 31.8423 16.8913 31.6667 17.3333 31.6667H20.75L20.6667 33.3333L20.75 35H17.3333ZM19 26.6667C18.558 26.6667 18.134 26.4911 17.8215 26.1785C17.5089 25.866 17.3333 25.442 17.3333 25C17.3333 24.558 17.5089 24.1341 17.8215 23.8215C18.134 23.5089 18.558 23.3333 19 23.3333H24C23.2333 24.3667 22.5667 25.4833 22.05 26.6667H19Z" fill="white"/>
</svg>
