<svg width="64" height="64" viewBox="0 0 64 64" fill="none" xmlns="http://www.w3.org/2000/svg">
<rect width="64" height="64" fill="#E5E5E5"/>
<rect width="1440" height="3144" transform="translate(-811 -2229)" fill="white"/>
<circle cx="32" cy="32" r="32" fill="#BB6BD9"/>
<path d="M32 14.5L17 19.5V34.5C17 42.7852 23.7148 49.5 32 49.5C40.2852 49.5 47 42.7852 47 34.5V19.5L32 14.5ZM44.1875 34.5C44.1875 41.2305 38.7305 46.6875 32 46.6875C25.2695 46.6875 19.8125 41.2305 19.8125 34.5V21.6094L32 17.3125L44.1875 21.6094V34.5Z" fill="white"/>
<path d="M26.7812 30.5586C26.6509 30.4277 26.496 30.3238 26.3254 30.2529C26.1548 30.182 25.9719 30.1455 25.7871 30.1455C25.6024 30.1455 25.4194 30.182 25.2488 30.2529C25.0782 30.3238 24.9233 30.4277 24.793 30.5586C24.662 30.6889 24.5581 30.8438 24.4872 31.0144C24.4163 31.185 24.3799 31.368 24.3799 31.5527C24.3799 31.7375 24.4163 31.9204 24.4872 32.091C24.5581 32.2616 24.662 32.4165 24.793 32.5469L29.8477 37.6015L29.9297 37.6836C30.053 37.8071 30.1994 37.9051 30.3606 37.9719C30.5218 38.0388 30.6946 38.0732 30.8691 38.0732C31.0437 38.0732 31.2165 38.0388 31.3777 37.9719C31.5389 37.9051 31.6853 37.8071 31.8086 37.6836L40.5391 28.9531C40.6626 28.8298 40.7606 28.6834 40.8274 28.5222C40.8943 28.361 40.9287 28.1882 40.9287 28.0137C40.9287 27.8392 40.8943 27.6663 40.8274 27.5051C40.7606 27.3439 40.6626 27.1975 40.5391 27.0742L40.4297 26.9648C40.3064 26.8413 40.16 26.7433 39.9988 26.6765C39.8376 26.6096 39.6648 26.5752 39.4902 26.5752C39.3157 26.5752 39.1429 26.6096 38.9817 26.6765C38.8205 26.7433 38.6741 26.8413 38.5508 26.9648L30.8672 34.6445L26.7812 30.5586Z" fill="white"/>
</svg>
